<?xml version="1.0" standalone="no"?><!DOCTYPE svg PUBLIC "-//W3C//DTD SVG 1.1//EN" "http://www.w3.org/Graphics/SVG/1.1/DTD/svg11.dtd"><svg t="1529499636710" class="icon" style="" viewBox="0 0 1024 1024" version="1.1" xmlns="http://www.w3.org/2000/svg" p-id="4093" xmlns:xlink="http://www.w3.org/1999/xlink" width="200" height="200"><defs><style type="text/css"></style></defs><path d="M416 162c-16.6 0-30 13.4-30 30v567.6L245.2 618.8c-11.6-11.2-30.1-11.2-41.7 0-11.9 11.5-12.2 30.5-0.7 42.4l191.9 191.9c0.7 0.7 1.5 1.4 2.3 2.1 0.1 0.1 0.3 0.2 0.4 0.3 0.2 0.2 0.5 0.4 0.7 0.5 0.2 0.2 0.4 0.3 0.7 0.5 0.2 0.1 0.3 0.3 0.5 0.4 0.2 0.2 0.5 0.3 0.7 0.5 0.2 0.1 0.3 0.2 0.5 0.3 0.2 0.1 0.5 0.3 0.7 0.4l0.6 0.3c0.2 0.1 0.4 0.2 0.7 0.3l0.6 0.3 0.6 0.3c0.2 0.1 0.5 0.2 0.7 0.3 0.2 0.1 0.4 0.2 0.6 0.2 0.3 0.1 0.5 0.2 0.8 0.3 0.2 0.1 0.4 0.1 0.6 0.2 0.3 0.1 0.5 0.2 0.8 0.3 0.2 0.1 0.5 0.1 0.7 0.2 0.2 0.1 0.5 0.1 0.7 0.2 0.3 0.1 0.5 0.1 0.8 0.2 0.2 0 0.4 0.1 0.6 0.1 0.3 0.1 0.7 0.1 1 0.2 0.2 0 0.3 0.1 0.5 0.1 0.4 0.1 0.8 0.1 1.3 0.2h0.2c1 0.1 2 0.2 3.1 0.2h1.5c8.8-0.4 16.6-4.6 21.8-11 0.3-0.4 0.6-0.7 0.9-1.1 0.1-0.1 0.1-0.2 0.2-0.2 0.2-0.3 0.5-0.6 0.7-1 0.1-0.1 0.1-0.2 0.2-0.3l0.6-0.9c0.1-0.1 0.1-0.2 0.2-0.3 0.2-0.3 0.4-0.6 0.5-1 0-0.1 0.1-0.2 0.1-0.3 0.2-0.3 0.4-0.7 0.5-1.1 0-0.1 0.1-0.1 0.1-0.2 0.2-0.4 0.3-0.8 0.5-1.2v-0.1c1.4-3.5 2.2-7.3 2.2-11.2V192c-0.1-16.6-13.5-30-30.1-30zM821.2 362.8L630.3 171.9c-5.5-6.1-13.4-9.9-22.3-9.9-16.6 0-30 13.4-30 30v640c0 16.6 13.4 30 30 30s30-13.4 30-30V264.5l140.7 140.7c5.6 5.6 13.3 8.8 21.2 8.8 8 0 15.6-3.2 21.2-8.8 11.8-11.7 11.8-30.7 0.1-42.4z" p-id="4094"></path></svg>